# xmcd CD database file
#
# Track frame offsets:
#	150
#	19667
#	46152
#	75435
#	100840
#	126265
#	151937
#	176240
#	202965
#
# Disc length: 3065 seconds
#
# Revision: 0
# Processed by: cddbd v1.5.1PL0 Copyright (c) Steve Scherf et al.
# Submitted via: CDex 1.51
#
DISCID=660bf709
DTITLE=Sergio Orlandi - a look at mompou
DYEAR=2004
DGENRE=Jazz
TTITLE0=preludio n. 9
TTITLE1=soul voice
TTITLE2=preludio n. 5
TTITLE3=spikes
TTITLE4=preludio n. 1
TTITLE5=a look at mompou
TTITLE6=fo the wedding
TTITLE7=song for kenny
TTITLE8=sole di mezzanotte
EXTD=YEAR: 2004
EXTT0=
EXTT1=
EXTT2=
EXTT3=
EXTT4=
EXTT5=
EXTT6=
EXTT7=
EXTT8=
PLAYORDER=
